<?xml version="1.0" encoding="iso-8859-1"?>
<!-- Uploaded to: SVG Repo, www.svgrepo.com, Generator: SVG Repo Mixer Tools -->
<!DOCTYPE svg PUBLIC "-//W3C//DTD SVG 1.1//EN" "http://www.w3.org/Graphics/SVG/1.1/DTD/svg11.dtd">
<svg fill="#000000" version="1.1" id="Capa_1" xmlns="http://www.w3.org/2000/svg" xmlns:xlink="http://www.w3.org/1999/xlink" 
	 width="800px" height="800px" viewBox="0 0 45.002 45.002"
	 xml:space="preserve">
<g>
	<g>
		<g>
			<path d="M28.35,18.697c0.001,0.076,0.062,0.137,0.141,0.137h4.373c0.036,0,0.073-0.016,0.1-0.043
				c0.025-0.027,0.041-0.064,0.039-0.101c-0.159-4.821-3.017-8.928-7.107-10.218c-0.072-0.023-0.146,0.014-0.172,0.084
				c-0.038,0.105-0.108,0.193-0.21,0.263c-0.034,0.023-0.058,0.061-0.062,0.102c-0.002,0.041,0.012,0.081,0.039,0.11
				C27.187,10.815,28.281,14.52,28.35,18.697z"/>
			<path d="M18.909,18.834h8.743c0.038,0,0.074-0.016,0.102-0.042c0.025-0.026,0.041-0.063,0.041-0.099
				c-0.08-4.469-1.355-8.38-3.178-9.733c-0.024-0.019-0.054-0.029-0.084-0.029h-2.505c-0.029,0-0.058,0.011-0.082,0.029
				c-1.821,1.353-3.097,5.265-3.176,9.733c0,0.036,0.014,0.073,0.04,0.099C18.834,18.818,18.871,18.834,18.909,18.834z"/>
			<path d="M13.698,18.834h4.372c0.077,0,0.14-0.062,0.141-0.137c0.067-4.176,1.163-7.88,2.86-9.666
				c0.028-0.029,0.042-0.069,0.039-0.111c-0.004-0.041-0.026-0.078-0.061-0.101c-0.102-0.069-0.172-0.157-0.21-0.263
				c-0.026-0.07-0.102-0.109-0.172-0.084c-4.091,1.29-6.947,5.396-7.108,10.218c-0.001,0.037,0.014,0.074,0.04,0.101
				C13.625,18.818,13.662,18.834,13.698,18.834z"/>
			<path d="M21.36,8.511h3.841c0.075,0,0.139-0.062,0.139-0.139V6.697c0-0.078-0.062-0.141-0.139-0.141h-0.582V4.293
				c0-0.022-0.005-0.043-0.014-0.061l-1.187-2.37V0.863h0.341c0.077,0,0.141-0.063,0.141-0.139c0-0.078-0.063-0.139-0.141-0.139
				h-0.341V0.139C23.419,0.063,23.356,0,23.277,0c-0.075,0-0.139,0.063-0.139,0.139v0.446h-0.339c-0.078,0-0.141,0.061-0.141,0.139
				c0,0.076,0.063,0.139,0.141,0.139h0.339v0.999l-1.187,2.37c-0.009,0.018-0.013,0.039-0.013,0.061v2.263h-0.58
				c-0.076,0-0.139,0.063-0.139,0.141v1.675C21.221,8.45,21.284,8.511,21.36,8.511z"/>
			<path d="M39.06,6.087l-2.32-1.079V0.139C36.739,0.063,36.677,0,36.601,0c-0.078,0-0.143,0.063-0.143,0.139v4.869l-2.316,1.079
				c-0.048,0.023-0.081,0.072-0.081,0.127v38.608c0,0.078,0.062,0.139,0.139,0.139H39c0.076,0,0.141-0.061,0.141-0.139V6.214
				C39.14,6.159,39.108,6.11,39.06,6.087z M35.301,16.832v-3.716c0-0.827,0.582-1.498,1.3-1.498c0.716,0,1.3,0.67,1.3,1.498v3.716
				H35.301z M35.645,25.529c0.374,0,0.68,0.354,0.68,0.791v2.055h-1.359V26.32C34.965,25.885,35.271,25.529,35.645,25.529z
				 M36.875,26.32c0-0.438,0.306-0.791,0.68-0.791c0.375,0,0.679,0.354,0.679,0.791v2.055h-1.357L36.875,26.32L36.875,26.32z
				 M38.233,23.594h-1.356V21.54c0-0.437,0.305-0.792,0.679-0.792c0.375,0,0.679,0.354,0.679,0.792L38.233,23.594L38.233,23.594z
				 M34.965,23.594V21.54c0-0.437,0.306-0.792,0.681-0.792c0.374,0,0.68,0.354,0.68,0.792v2.054H34.965z"/>
			<path d="M18.76,22.336c0,0.076,0.063,0.139,0.139,0.139h1.749c0.025,0,0.049-0.006,0.071-0.02l2.2-1.32
				c0.216-0.127,0.507-0.127,0.721,0l2.2,1.32c0.021,0.014,0.048,0.02,0.071,0.02h1.75c0.075,0,0.14-0.063,0.14-0.139v-2.804
				c0-0.078-0.063-0.139-0.14-0.139h-8.763c-0.076,0-0.139,0.061-0.139,0.139L18.76,22.336L18.76,22.336z"/>
			<path d="M28.561,23.033h-2.84l-2.368-1.419c-0.044-0.028-0.102-0.028-0.146,0l-2.367,1.419H18c-0.076,0-0.139,0.062-0.139,0.141
				v1.398c0,0.078,0.063,0.14,0.139,0.14h0.341v20.11c0,0.078,0.063,0.139,0.139,0.139h2.827c0.076,0,0.139-0.061,0.139-0.139
				v-5.245c0-1.162,0.821-2.104,1.833-2.104c1.014,0,1.835,0.942,1.835,2.104v5.245c0,0.078,0.063,0.139,0.14,0.139h2.826
				c0.076,0,0.141-0.061,0.141-0.139v-20.11h0.341c0.076,0,0.139-0.062,0.139-0.14v-1.398
				C28.699,23.096,28.637,23.033,28.561,23.033z M23.279,27.128c1.014,0,1.835,0.824,1.835,1.835c0,1.012-0.821,1.835-1.835,1.835
				c-1.011,0-1.833-0.823-1.833-1.835C21.446,27.952,22.269,27.128,23.279,27.128z"/>
			<path d="M16.178,26.424c-0.054-0.052-0.142-0.052-0.198,0l-2.399,2.401c-0.026,0.025-0.042,0.061-0.042,0.099v15.898
				c0,0.078,0.063,0.139,0.141,0.139h0.862c0.076,0,0.139-0.061,0.139-0.139v-4.118c0-0.888,0.628-1.606,1.398-1.606
				c0.771,0,1.397,0.722,1.397,1.606v4.118c0,0.078,0.063,0.139,0.141,0.139h0.024c0.076,0,0.139-0.061,0.139-0.139V28.086
				c0-0.037-0.014-0.074-0.041-0.098L16.178,26.424z M16.082,33.833c-0.771,0-1.398-0.625-1.398-1.397
				c0-0.77,0.628-1.396,1.398-1.396c0.771,0,1.397,0.629,1.397,1.396C17.479,33.208,16.853,33.833,16.082,33.833z"/>
			<path d="M30.58,26.424c-0.056-0.052-0.144-0.052-0.196,0l-1.563,1.564c-0.027,0.021-0.042,0.061-0.042,0.098v16.736
				c0,0.078,0.086,0.139,0.162,0.139c0.078,0,0.14-0.061,0.14-0.139v-4.118c0-0.888,0.627-1.606,1.399-1.606
				c0.771,0,1.396,0.722,1.396,1.606v4.118c0,0.078,0.063,0.139,0.141,0.139h0.861c0.078,0,0.142-0.061,0.142-0.139V28.924
				c0-0.038-0.017-0.07-0.041-0.099L30.58,26.424z M30.479,31.037c0.771,0,1.396,0.629,1.396,1.397c0,0.771-0.627,1.396-1.396,1.396
				c-0.771,0-1.399-0.625-1.399-1.396C29.08,31.666,29.709,31.037,30.479,31.037z"/>
			<path d="M17.301,24.572v-0.479c0-0.061-0.04-0.113-0.1-0.134c-0.06-0.016-0.124,0.005-0.156,0.063
				c-0.244,0.375-0.617,0.592-1.024,0.592c-0.692,0-1.257-0.582-1.257-1.299c0-0.716,0.565-1.3,1.257-1.3
				c0.498,0,0.948,0.308,1.148,0.783c0.021,0.048,0.066,0.08,0.12,0.083c0.048,0.007,0.101-0.022,0.13-0.066
				c0.131-0.212,0.349-0.341,0.582-0.341h0.061c0.076,0,0.139-0.063,0.139-0.139v-2.804c0-0.078-0.063-0.139-0.139-0.139h-4.379
				c-0.078,0-0.141,0.061-0.141,0.139v8.207c0,0.06,0.035,0.107,0.086,0.13c0.018,0.007,0.036,0.01,0.055,0.01
				c0.035,0,0.071-0.013,0.098-0.042l1.807-1.807c0.251-0.248,0.739-0.248,0.988,0L17.545,27c0.04,0.038,0.099,0.055,0.152,0.03
				c0.054-0.021,0.086-0.073,0.086-0.13v-1.571c0-0.054-0.03-0.102-0.079-0.123C17.46,25.089,17.301,24.84,17.301,24.572z"/>
			<path d="M32.879,19.394H28.5c-0.078,0-0.14,0.061-0.14,0.139v2.804c0,0.076,0.062,0.139,0.14,0.139h0.062
				c0.234,0,0.448,0.125,0.583,0.34c0.029,0.044,0.082,0.077,0.129,0.065c0.053-0.003,0.1-0.035,0.119-0.083
				c0.199-0.476,0.649-0.783,1.147-0.783c0.691,0,1.256,0.584,1.256,1.299c0,0.718-0.563,1.3-1.256,1.3
				c-0.407,0-0.78-0.218-1.023-0.593c-0.032-0.056-0.098-0.072-0.157-0.062c-0.061,0.021-0.1,0.073-0.1,0.134v0.477
				c0,0.269-0.158,0.518-0.402,0.636c-0.048,0.021-0.078,0.069-0.078,0.122V26.9c0,0.056,0.033,0.107,0.086,0.129
				c0.053,0.024,0.112,0.009,0.152-0.03l0.97-0.97c0.249-0.248,0.737-0.248,0.987,0l1.809,1.812
				c0.025,0.024,0.063,0.037,0.099,0.037c0.019,0,0.036-0.003,0.055-0.01c0.052-0.021,0.086-0.07,0.086-0.13v-8.207
				C33.021,19.455,32.957,19.394,32.879,19.394z"/>
			<path d="M12.634,26.484c-2.256,0.557-3.893,2.862-3.893,5.479v2.803c0,0.078,0.063,0.141,0.139,0.141h3.789
				c0.076,0,0.139-0.062,0.139-0.141V26.62c0-0.042-0.02-0.084-0.055-0.112C12.72,26.482,12.677,26.47,12.634,26.484z"/>
			<path d="M12.669,35.741H6c-0.076,0-0.139,0.062-0.139,0.143v8.979c0,0.078,0.063,0.14,0.139,0.14h6.668
				c0.076,0,0.139-0.062,0.139-0.14v-8.979C12.808,35.807,12.745,35.741,12.669,35.741z"/>
		</g>
	</g>
</g>
</svg>